HIERARCHY
ROOT Hips
{
	OFFSET	0.00	0.00	0.00
	CHANNELS 6 Xposition Yposition Zposition Zrotation Xrotation Yrotation
	JOINT LeftUpLeg
	{
		OFFSET	 0.126116	-0.014019	-0.065224
		CHANNELS 3 Zrotation Xrotation Yrotation
		JOINT LeftLeg
		{
			OFFSET	 0.000000	 0.000000	 0.569914
			CHANNELS 3 Zrotation Xrotation Yrotation
			JOINT LeftFoot
			{
				OFFSET	 0.000000	 0.000000	 0.544423
				CHANNELS 3 Zrotation Xrotation Yrotation
				JOINT LeftToeBase
				{
					OFFSET	 0.000000	 0.000000	 0.207117
					CHANNELS 3 Zrotation Xrotation Yrotation
					End Site
					{
						OFFSET	 0.000000	 0.000000	 0.207117
					}
				}
			}
		}
	}
	JOINT RightUpLeg
	{
		OFFSET	-0.124023	-0.008373	-0.065224
		CHANNELS 3 Zrotation Xrotation Yrotation
		JOINT RightLeg
		{
			OFFSET	 0.000000	 0.000000	 0.570047
			CHANNELS 3 Zrotation Xrotation Yrotation
			JOINT RightFoot
			{
				OFFSET	 0.000000	 0.000000	 0.544354
				CHANNELS 3 Zrotation Xrotation Yrotation
				JOINT RightToeBase
				{
					OFFSET	 0.000000	 0.000000	 0.207540
					CHANNELS 3 Zrotation Xrotation Yrotation
					End Site
					{
						OFFSET	 0.000000	 0.000000	 0.207540
					}
				}
			}
		}
	}
	JOINT Spine
	{
		OFFSET	 0.000184	-0.007763	 0.117403
		CHANNELS 3 Zrotation Xrotation Yrotation
		JOINT Spine1
		{
			OFFSET	 0.000000	 0.000000	 0.137269
			CHANNELS 3 Zrotation Xrotation Yrotation
			JOINT Spine2
			{
				OFFSET	 0.000000	 0.000000	 0.156879
				CHANNELS 3 Zrotation Xrotation Yrotation
				JOINT LeftShoulder
				{
					OFFSET	 0.080501	-0.002496	 0.160144
					CHANNELS 3 Zrotation Xrotation Yrotation
					JOINT LeftArm
					{
						OFFSET	 0.000000	 0.000000	 0.164363
						CHANNELS 3 Zrotation Xrotation Yrotation
						JOINT LeftForeArm
						{
							OFFSET	 0.000000	 0.000000	 0.364576
							CHANNELS 3 Zrotation Xrotation Yrotation
							JOINT LeftHand
							{
								OFFSET	 0.000000	 0.000000	 0.360812
								CHANNELS 3 Zrotation Xrotation Yrotation
								JOINT LeftHandIndex1
								{
									OFFSET	 0.000000	 0.000000	 0.086006
									CHANNELS 3 Zrotation Xrotation Yrotation
									JOINT LeftHandIndex2
									{
										OFFSET	 0.000000	 0.000000	 0.047237
										CHANNELS 3 Zrotation Xrotation Yrotation
										JOINT LeftHandIndex3
										{
											OFFSET	-0.004284	-0.000551	 0.038165
											CHANNELS 3 Zrotation Xrotation Yrotation
											End Site
											{
												OFFSET	-0.004284	-0.000551	 0.038165
											}
										}
									}
								}
							}
						}
					}
				}
				JOINT Neck
				{
					OFFSET	 0.000000	 0.000000	 0.176489
					CHANNELS 3 Zrotation Xrotation Yrotation
					JOINT Head
					{
						OFFSET	 0.000000	-0.001747	 0.077940
						CHANNELS 3 Zrotation Xrotation Yrotation
						End Site
						{
							OFFSET	 0.000000	-0.001747	 0.077940
						}
					}
				}
				JOINT RightShoulder
				{
					OFFSET	-0.080363	 0.000306	 0.159706
					CHANNELS 3 Zrotation Xrotation Yrotation
					JOINT RightArm
					{
						OFFSET	 0.000000	 0.000000	 0.164196
						CHANNELS 3 Zrotation Xrotation Yrotation
						JOINT RightForeArm
						{
							OFFSET	 0.000000	 0.000000	 0.365611
							CHANNELS 3 Zrotation Xrotation Yrotation
							JOINT RightHand
							{
								OFFSET	 0.000000	 0.000000	 0.360648
								CHANNELS 3 Zrotation Xrotation Yrotation
								JOINT RightHandIndex1
								{
									OFFSET	 0.000000	 0.000000	 0.069977
									CHANNELS 3 Zrotation Xrotation Yrotation
									JOINT RightHandIndex2
									{
										OFFSET	 0.000000	 0.000000	 0.052305
										CHANNELS 3 Zrotation Xrotation Yrotation
										JOINT RightHandIndex3
										{
											OFFSET	 0.009002	-0.000782	 0.042196
											CHANNELS 3 Zrotation Xrotation Yrotation
											End Site
											{
												OFFSET	 0.009002	-0.000782	 0.042196
											}
										}
									}
								}
							}
						}
					}
				}
			}
		}
	}
}
MOTION
Frames:    4
Frame Time: 0.03333334
-0.412621	 0.208605	 1.222933	-176.527600	 10.616060	 13.098320	 40.985670	-12.175080	 171.849300	-8.414054	-41.397840	-5.962786	 151.346400	 76.849040	-163.391500	-2.385833	 28.452760	 0.000004	-32.449570	-37.024650	 153.294600	 5.911422	-51.716720	 3.447587	-17.041900	 78.107830	 34.549210	 2.384659	 28.388700	-0.000001	 86.240720	-21.995280	 13.593430	 49.291900	 19.729900	 10.528880	-16.444960	-4.315835	-21.334050	-91.776150	 78.527350	 180.000000	-2.275101	 33.003690	-29.529100	 16.011780	-43.803140	-65.552230	 4.509925	-19.478140	-0.660176	-4.130319	 21.525730	 0.991547	-5.167930	 0.731704	 3.519349	-1.378229	 35.397820	-2.634230	-18.054170	 7.475910	 7.608318	-25.750470	-21.839710	-16.410210	 89.782090	 78.203850	-180.000000	 77.075380	-1.484573	-3.727981	-53.137120	-34.963960	 30.510540	-52.398540	-1.231930	-89.721230	 5.716227	 19.173190	-3.685159	 5.027444	 0.246877	-9.377972	-2.350882	 35.473990	 5.254307
-0.416557	 0.216889	 1.225243	-175.495100	 10.109990	 11.810260	 41.613870	-9.458259	 172.019800	-8.445415	-39.132380	-5.712658	 150.858000	 77.160630	-162.387400	-2.385833	 28.452760	 0.000004	-30.865860	-36.885940	 155.869700	 6.121957	-51.988960	 3.626711	-13.713790	 78.784300	 30.677030	 2.384659	 28.388700	-0.000001	 83.728170	-20.055480	 13.354860	 47.042480	 18.841580	 12.008530	-15.823320	-3.911315	-20.853770	-91.776210	 78.527360	-180.000000	-3.984152	 31.560570	-24.998830	 14.262300	-44.992440	-68.312630	 4.968226	-20.306020	-0.474758	-4.130319	 21.525730	 0.991547	-5.167930	 0.731704	 3.519349	-1.378229	 35.397820	-2.634230	-17.565430	 7.738261	 8.117621	-25.453670	-21.942280	-17.360650	 89.782130	 78.203890	 180.000000	 73.581930	-2.809145	 14.560540	-60.918920	-6.996841	 7.135425	-55.325210	-15.184780	-81.678650	 5.716227	 19.173190	-3.685159	 5.027444	 0.246877	-9.377972	-2.350882	 35.473990	 5.254307
-0.419686	 0.223383	 1.227184	-174.445300	 9.413317	 10.698650	 42.119940	-6.890496	 172.013300	-8.602397	-36.773550	-5.516112	 150.228100	 77.216960	-161.212500	-2.385833	 28.452760	 0.000004	-29.147390	-36.841010	 158.226400	 6.111253	-52.246440	 3.630893	-9.280760	 79.378440	 25.751320	 2.384659	 28.388700	-0.000001	 81.322680	-18.321900	 13.177860	 45.116500	 17.838830	 13.414790	-15.246830	-3.564754	-20.481520	-91.776180	 78.527330	 180.000000	-5.607590	 31.032090	-21.209110	 12.562500	-45.738130	-70.776370	 5.295101	-21.478980	-0.346529	-4.130319	 21.525730	 0.991547	-5.167930	 0.731704	 3.519349	-1.378229	 35.397820	-2.634230	-17.125410	 7.676286	 8.345564	-24.985260	-21.975240	-17.285010	 89.782070	 78.203900	-180.000000	 69.140150	-5.529007	 14.416230	-60.650310	-7.079309	 7.142850	-57.022910	-14.321120	-81.264450	 5.716227	 19.173190	-3.685159	 5.027444	 0.246877	-9.377972	-2.350882	 35.473990	 5.254307
-0.421606	 0.228280	 1.228786	-173.351100	 8.689471	 10.218580	 42.648090	-5.145581	 171.461700	-8.783363	-34.815110	-5.367287	 148.583200	 77.430560	-159.236800	-2.385833	 28.452760	 0.000004	-27.759850	-36.520310	 159.755600	 5.989522	-52.283840	 3.536200	-4.579339	 80.060550	 20.418690	 2.384659	 28.388700	-0.000001	 78.758320	-17.185860	 12.549090	 43.570570	 16.733390	 14.843760	-14.593400	-3.030973	-20.247350	-91.776160	 78.527400	 180.000000	-7.299575	 31.309850	-18.024850	 10.879780	-46.112490	-73.050960	 5.594249	-22.914170	-0.293251	-4.130319	 21.525730	 0.991547	-5.167930	 0.731704	 3.519349	-1.378229	 35.397820	-2.634230	-16.578320	 7.675596	 8.218539	-24.511100	-22.284380	-16.572530	 89.782020	 78.203870	-179.999900	 64.678610	-7.535795	 13.448100	-60.868020	-7.145809	 7.147752	-57.721620	-14.602870	-80.964050	 5.716227	 19.173190	-3.685159	 5.027444	 0.246877	-9.377972	-2.350882	 35.473990	 5.254307
